<svg fill="#37A6DD" xmlns="http://www.w3.org/2000/svg" xmlns:xlink="http://www.w3.org/1999/xlink" version="1.1" x="0px" y="0px" viewBox="0 0 100 100" enable-background="new 0 0 100 100" xml:space="preserve"><g><g><path d="M83.5,74.992h-33c-0.829,0-1.5-0.672-1.5-1.5s0.671-1.5,1.5-1.5h33c0.829,0,1.5,0.672,1.5,1.5S84.329,74.992,83.5,74.992z    "></path></g><path d="M86,89h-6l3.846-9.23c0.257-0.617,0.189-1.322-0.182-1.879S82.669,77,82,77H52c-0.643,0-1.247,0.309-1.623,0.831   c-0.376,0.521-0.478,1.191-0.275,1.802L53.225,89h-9.872C44.186,87.047,45,84.294,45,81c0-5.762-3.439-9.268-3.586-9.414   C41.04,71.211,40.531,71,40,71H21c-0.53,0-1.039,0.211-1.414,0.586C19.44,71.732,16,75.238,16,81c0,3.294,0.814,6.047,1.647,8H14   c-1.657,0-3,1.343-3,3s1.343,3,3,3h72c1.657,0,3-1.343,3-3S87.657,89,86,89z M54.775,81H79l-3.333,8H57.442L54.775,81z M20,81   c0-2.945,1.229-5.04,1.934-6h17.131C39.775,75.965,41,78.059,41,81c0,3.76-1.345,6.663-2.102,8H22.103   C21.345,87.663,20,84.76,20,81z"></path><g><path d="M41.5,68.992h-22c-0.829,0-1.5-0.672-1.5-1.5s0.671-1.5,1.5-1.5h22c0.829,0,1.5,0.672,1.5,1.5S42.329,68.992,41.5,68.992z    "></path></g><g><path d="M86,54.992h-2v-19c0-3.611-2.026-6.758-5-8.364V12.492c0-0.828-0.671-1.5-1.5-1.5h-6c-0.829,0-1.5,0.672-1.5,1.5v15.136    c-2.974,1.606-5,4.753-5,8.364v19h-3V25.999c0-1.104-0.896-2-2-2H44c-1.104,0-2,0.896-2,2v28.993h-6.074    C37.832,52.868,39,50.069,39,46.991c0-6.628-5.372-12-12-12s-12,5.372-12,12c0,3.078,1.169,5.877,3.074,8.001H14    c-1.657,0-3,1.343-3,3s1.343,3,3,3h72c1.657,0,3-1.343,3-3S87.657,54.992,86,54.992z M27,38.991c4.411,0,8,3.589,8,8s-3.589,8-8,8    s-8-3.589-8-8S22.589,38.991,27,38.991z M73,13.992h3v12.629c-0.49-0.078-0.988-0.13-1.5-0.13s-1.01,0.052-1.5,0.13V13.992z     M69,35.992c0-3.033,2.467-5.501,5.5-5.501s5.5,2.468,5.5,5.501v19H69V35.992z M57.339,27.999l-4.946,5.299l-4.982-5.299H57.339z     M46,30.878l5.304,5.642c0.284,0.302,0.679,0.473,1.093,0.473c0.001,0,0.002,0,0.003,0c0.415-0.001,0.811-0.173,1.094-0.477    L58,31.688v23.305H46V30.878z"></path><path d="M28,32.992c0-5.334-2.666-8-8-8C20,24.992,20,32.992,28,32.992z"></path></g></g></svg>